<?xml version="1.0" encoding="UTF-8" standalone="no"?>
<svg xmlns:rdf="http://www.w3.org/1999/02/22-rdf-syntax-ns#" xmlns="http://www.w3.org/2000/svg" height="70" viewBox="0 0 230 589" width="70" version="1.1" xmlns:cc="http://creativecommons.org/ns#" xmlns:dc="http://purl.org/dc/elements/1.1/">
<path d="m72.793 587.9c-2.385-1.33-7.793-11.76-7.793-15.03 0-1.5264-0.51448-3.9045-1.1433-5.2846-1.1853-2.6015 0.33869-16.165 2.2136-19.701 3.8626-7.2847 5.4582-32.34 2.6356-41.384-8.1581-26.138-10.334-23.643-10.967 12.574-0.40766 23.349 0.33938 35.495 2.271 36.926 1.3257 0.9817 1.9396 6.85 0.75785 7.244-4.4159 1.472-16.309-3.8497-18.448-8.2547-1.199-2.47-6.049-8.54-10.778-13.49s-8.877-10.12-9.219-11.5c-0.34176-1.375-1.2292-3.3876-1.9722-4.4725-3.1268-4.5659 0.67017-13.986 6.8708-17.046 10.368-5.1162 13.261-21.769 8.172-47.039-1.434-7.12-3.057-15.19-3.607-17.94-2.2367-11.186 0.8012-22.749 9.2255-35.113 5.8682-8.6125 7.6144-20.762 4.5109-31.387-0.88359-3.025-2.0213-7.075-2.5283-9-0.50699-1.925-1.8384-5.2826-2.9586-7.4614-1.119-2.18-2.036-4.59-2.036-5.35 0-0.76309-0.6216-2.8054-1.3813-4.5386-2.5196-5.7478-5.625-18.089-5.6218-22.342 0.0042-5.5667-1.3798-6.1396-5.9533-2.4642-11.25 9.05-18.965 0.83-12.531-13.34 1.2125-2.6698 4.1107-9.3406 6.5171-15 1.477-3.4737 3.9116-15.985 3.5094-18.034-2.4765-12.619-2.7563-19.307-1.0685-25.541 0.95664-3.5335 1.968-7.662 2.2475-9.1745 0.27948-1.5125 0.87218-2.75 1.3171-2.75s1.3301-1.5791 1.9671-3.5091c0.63697-1.93 1.6844-4.0675 2.3276-4.75 3.176-3.37 6.67-8.8 6.67-10.36 0-1.6039-0.15094-1.5881-1.75 0.18328-2.0405 2.2604-7.25 10.135-7.25 10.959 0 0.31-0.47968 1.1072-1.0659 1.7714-0.58627 0.66428-2.3954 3.5703-4.0202 6.4578-6.0451 10.743-12.241 4.6127-6.4138-6.346 4.4162-8.3056 3.6458-8.8502-6.2027-4.3847-12.735 5.7745-10.821 0.7362 2.272-5.9791 6.8255-3.5008 6.7645-3.377 7.8614-15.956 0.64164-7.3584 2.8483-9.5973 5.8823-5.9682 4.486 5.36 5.688 6.91 5.688 7.35 0 0.58 4.96 5.53 5.545 5.53 1.3322 0 0.1081-4.8222-2.3722-9.3452-1.5547-2.8352-3.1197-6.6232-3.4776-8.418-0.35797-1.7947-4.1484-8.462-8.4232-14.816-4.2748-6.3542-8.2623-12.42-8.8612-13.48-0.59883-1.0598-1.7974-2.7175-2.6636-3.6838-2.5737-2.8714-8.7375-15.576-8.7428-18.02-0.00269-1.245-0.55269-3.1407-1.2222-4.2128-3.7985-6.0824 7.0001-22.006 14.932-22.02 1.8791-0.003 5.1298-0.88816 13.202-3.5942 3.2285-1.0823-0.57769-2.2745-4.4181-1.3838-11.22 2.6-22.498-3.79-22.498-12.75 0-7.299 4.6165-12.13 13.044-13.653 5.6084-1.0133 11.59-8.6817 9.9195-12.716-1.6872-4.0732-0.72327-15.414 1.5209-17.894 1.5489-1.7115 1.5667-2.1462 0.19202-4.7017-6.3552-11.815-5.5186-22.719 2.2849-29.781 1.7166-1.5535 1.7512-1.9796 0.41946-5.1668-2.719-6.508 1.381-14.367 7.497-14.367 1.076 0 4.057-0.9 6.623-2 5.315-2.2784 8.567-2.5333 10.293-0.8069 0.92418 0.92418 1.8569 0.70238 4.1378-0.98395 11.147-8.2411 29.531 0.93831 26.246 13.105-0.6916 2.5613 2.0969 8.3874 4.8752 10.186 6.8403 4.4282 7.5885 10.857 2.4508 21.057-5.4634 10.847-1.1763 25.064 5.9799 19.831 5.9223-4.3305 16.18 0.55018 17.192 8.1803 0.5301 3.9959-2.2776 12.449-4.6146 13.894-0.51967 0.32117-1.2433 2.5744-1.6082 5.0071-0.97072 6.4732-5.667 12.281-12.39 15.323-5.6198 2.5427-4.6746 4.8257 1.4619 3.5308 9.2079-1.943 14.125 21.932 6.8772 33.391-0.77 1.22-1.4 4.4-1.4 7.07 0 5.92-6.454 12.22-12.509 12.22-0.88477 0-1.3306 0.45-0.99064 1 0.89339 1.4455 5.1288 1.2283 6.7008-0.34369 0.73903-0.73903 3.3067-2.6515 5.7059-4.25 6.4357-4.2878 8.1702-5.5037 14.075-9.8667 7.2067-5.3252 11.334-7.6196 22.019-12.239 3.025-1.308 6.3256-2.8382 7.3346-3.4005 1.1278-0.62851 4.8773-0.75697 9.7324-0.33346 9.8728 0.86122 10.612-0.17347 5.4671-7.6528-3.8541-5.6029-4.1104-7.5376-1.233-9.3062 2.2497-1.3828 5.7134 2.5152 10.701 12.043 1.8432 3.521 5.7467 8.8357 8.6745 11.811 2.9278 2.9749 5.3232 5.832 5.3232 6.3492 0 1.8959 6.2335 2.1896 10.946 0.51581 6.1178-2.1728 8.281-1.3712 7.8676 2.9157-0.31942 3.3125-5.7433 7.4751-10.005 7.6782-2.2016 0.10495-3.3214 1.9683-1.9856 3.3041 0.73227 0.73227 2.1429 0.40389 4.67-1.0871 4.2567-2.5115 8.0599-2.7568 9.2682-0.59768 0.47359 0.84627 4.631 3.4338 9.2386 5.75 12.501 6.2842 12.431 6.1269 12.761 28.63 0.17576 11.968 0.78268 20.744 1.6714 24.17 1.53 5.89 1.34 6.91-1.31 6.91-2.31 0-4.12-12.91-4.12-29.36 0-7.09-0.39-11.64-1-11.64-2.1101 0-0.92677 37.457 1.5401 48.75 0.59502 2.7239 0.41918 3.25-1.0863 3.25-0.98794 0-2.595 0.72286-3.5713 1.6064-1.6373 1.4818-2.0044 1.443-4.7331-0.5-3.5052-2.4959-4.734-2.6311-5.511-0.60636-0.9248 2.41-4.9198 1.7387-9.4414-1.5865-4.3275-3.1825-4.9278-4.6795-3.1834-7.9388 1.0442-1.9512 4.8326-20.303 4.7428-22.975-0.0277-0.825 0.28492-4.3125 0.69481-7.75 0.80897-6.7844 0.81035-6.7819-2.8491-5.1146-2.9702 1.3533-3.9289 3.3853-2.6896 5.701 0.52787 0.98634 0.54453 3.5618 0.04 6.1776-0.47593 2.4673-0.88493 7.2932-0.90888 10.724l-0.0436 6.2382-3.9651 0.63405c-2.4668 0.39445-4.4993 1.4494-5.3788 2.7917-0.87278 1.332-3.4478 2.679-6.7294 3.52-2.9236 0.74929-7.2726 2.228-9.6645 3.2861-4.7983 2.1225-8.3054 1.4568-19.403-3.6828-5.9059-2.7352-11.608-2.3155-12.848 0.94575-1.6447 4.326-29.571 4.3932-37.89 0.0912-4.26-2.2-9.117-6.54-9.117-8.14 0-0.77145-0.79933-1.9018-1.7763-2.512-1.576-0.98422-0.6457-2.2554 8.25-11.273l10.026-10.17 3.5 1.1836c1.925 0.65096 4.85 1.8924 6.5 2.7588 1.65 0.86637 3.6019 1.578 4.3375 1.5814 0.73563 0.003 4.1106 1.5441 7.5 3.4237 3.3894 1.8797 8.075 3.922 10.412 4.5386 2.3375 0.61653 4.25 1.5536 4.25 2.0824 0 1.4961 4.3491 1.1329 7.9509-0.66393 2.3998-1.1972 4.6638-1.4602 8.5936-0.99833 6.3089 0.74149 7.4429-0.27014 3.5387-3.1567-5.29-3.92-15.08-13.43-15.08-14.66 0-1.14 5.36-6.56 6.49-6.56 0.87869 0 11.882-7.9172 19.881-14.305l3.513-2.8054-3.9976-3.6116c-2.6014-2.3502-5.4624-3.8657-8.1915-4.3391-2.3066-0.40014-6.8034-1.45-9.9927-2.333-9.1625-2.5367-12.351-1.9917-19.663 3.3607-5.7008 4.1733-25.663 24.479-28.53 29.021-3.2875 5.2078-17.878 20.528-21.701 22.786-7.7512 4.5788-2.5542 13.859 9.2939 16.596 8.6574 2 10.831 4.9638 6.4409 8.7811-1.8982 1.6505-2.2399 2.5451-1.5 3.9276 0.52698 0.98468 0.97246 3.0574 0.98995 4.6061 0.0411 3.638 1.4088 5.2762 7.2182 8.6453 5.5065 3.1935 6.2774 6.3239 2.3232 9.4342-2.0632 1.6229-2.346 2.5113-1.8876 5.9289 0.44549 3.3213 0.13816 4.3936-1.7684 6.1698-1.7862 1.6641-2.2536 3.0643-2.0687 6.1974 0.18195 3.0836-0.35613 4.7547-2.2593 7.0165l-2.4982 2.9689 2.2998 3.3889c6.4997 9.5779 5.6108 14.39-3.4528 18.694-6.0147 2.8556-6.1631 3.275-5.9037 16.682 0.11376 5.8797 0.21939 11.815 0.23473 13.19s-0.49755 6.775-1.1398 12c-0.6422 5.225-1.8503 16.475-2.6846 25-0.83434 8.525-2.2377 18.097-3.1185 21.271-1.3467 4.853-1.4739 8.5118-0.79932 23 0.44119 9.4759 0.69532 28.254 0.56473 41.729s0.23695 28.325 0.81675 33c1.9684 15.872 3.2624 52.995 2.0384 58.48-3.848 17.244-6.2387 22.095-12.473 25.307-1.2776 0.65821-2.6371 0.70161-3.6808 0.11751zm10.207-19.86c3.8122-2.9277 3.827-15.183 0.08082-66.536-1.0842-14.861-1.0993-16.347-0.42326-41.637 0.41776-15.629 0.23144-19.422-1.1544-23.5-0.909-2.68-1.669-7.68-1.69-11.12-0.028-4.65-0.394-6.25-1.425-6.25-0.764 0-1.388 0.87-1.388 1.94 0 2.5526-1.7214 3.5351-3.5438 2.0227-2.0755-1.7225-1.8359-5.7084 0.38564-6.4134 6.8352-2.1694 9.9591-14.986 10.615-43.55 0.14527-6.325 0.80117-18.925 1.4576-28l1.1934-16.5-2.4566-2.1183c-7.972-6.87-32.981-9.57-39.101-4.21-0.522 0.46-1.578 0.83-2.346 0.83-6.2088 0-8.5129 6.3091-5.3382 14.617 1.0264 2.6858 2.4122 6.6834 3.0796 8.8834 0.66742 2.2 2.4919 6.475 4.0543 9.5 1.5625 3.025 3.789 7.975 4.9479 11s2.5115 6.4 3.0057 7.5c5.8232 12.961 6.4382 25.134 2.0463 40.5-5.2098 18.227-3.6167 37.235 4.5918 54.788 1.874 4.01 3.408 7.77 3.408 8.36 0 0.59163 0.84718 2.712 1.8826 4.7118 1.0354 1.9999 2.6519 5.6612 3.5921 8.1362 0.94023 2.475 2.3505 5.85 3.134 7.5 4.0694 8.57 4.4859 26.795 0.87087 38.111-6.1961 19.395-6.7869 25.797-2.7297 29.577 4.6168 4.3017 9.2188 4.9434 13.25 1.8474zm-29.419-49.04c0.06983-27.148 0.31159-32.014 1.75-35.218 2.5005-5.5702 2.6118-5.1247-5.8161-23.282-5.7056-12.292-5.9876-28.21-0.7728-43.628 3.4351-10.156-1.8762-11.01-6.9746-1.1218-6.2659 12.153-7.1333 29.062-2.1147 41.226 4.2395 10.276 2.1176 42.662-3.3202 50.676-2.4851 3.662-2.8516 5.37-1.48 6.8984 0.8532 0.95069 2.4933 6.8709 3.7261 13.45 0.36071 1.925 1.9531 6.2937 3.5386 9.7083s2.8896 7.0146 2.898 8c0.02908 3.4025 2.5677 5.3525 6.4847 4.9812 1.952-0.19 2.002-0.95 2.081-31.69zm27.653-200.12c-12.326-5.2348-47.054-4.2528-43.663 1.2345 0.88577 1.4332 3.6247 1.0182 5.7068-0.86464 3.0337-2.7435 27.099-2.4701 34.722 0.39441 6.5022 2.4434 9.2547 1.7928 3.2338-0.7643zm9.4105-26.46c1.4505-2.2137 2.1742-2.4892 5.0989-1.9405 5.0602 0.94931 9.2703-5.4992 5.2233-8.0004-0.61443-0.37974 0.23342-2.0818 2.0908-4.1972l3.1243-3.5584-2.5562-2.3702c-3.04-2.82-2.53-4.99 1.37-5.85 5.1138-1.1232 3.7322-7.5-1.6249-7.5-2.8389 0-7.302-6.2746-7.1772-10.09 0.06458-1.9747-0.22568-4.1455-0.64503-4.824-0.44931-0.727 0.12468-2.178 1.3976-3.5329 2.857-3.04 0.675-5.55-4.822-5.55-6.897 0-13.128-6.13-13.128-12.91 0-2.2314-3.301-4.5326-7.75-5.4027-3.5792-0.69995-4.6769 1.4165-1.6216 3.1264 1.0699 0.59875 1.2542 1.1426 0.5372 1.5857-0.60017 0.37093-2.899-0.4668-5.1085-1.8616-3.373-2.13-5.214-2.54-11.478-2.54-4.1035 0-7.739-0.45-8.0789-1-0.97776-1.582-5.2235-1.1629-5.893 0.58179-1.6462 4.2898-0.72113 6.1443 3.393 6.8022 3.7704 0.60292 5.714 2.616 2.5257 2.616-3.4835 0-4.7399 5.6678-1.763 7.9529l2.7373 2.1012-2.25 1.5949c-2.906 2.0599-2.8419 3.1754 0.25 4.351 3.4356 1.3062 3.1319 3.3608-0.74922 5.0695-3.746 1.6492-5.3655 5.5777-1.8378 4.4581 3.3163-1.0526 3.688 1.9694 0.68163 5.5423-3.8965 4.6308-0.86554 7.201 3.4283 2.9072 1.6256-1.6256 2.4196-1.8106 4.043-0.94179 1.1111 0.59462 3.4632 0.94243 5.2271 0.77292 2.6775-0.25733 3.2597 0.0632 3.5265 1.9418 0.20907 1.4721-0.19709 2.25-1.1748 2.25-1.481 0-9.6132 7.8081-9.634 9.25-0.006 0.41 1.339 0.75 2.989 0.75 3.3497 0 3.5213 0.43078 1.5725 3.9496-1.8977 3.4268-0.99618 5.0851 2.3957 4.4067 1.5331-0.30661 3.7497-0.0425 4.9258 0.58696 1.9342 1.0351 2.1972 0.85033 2.7543-1.935 0.71167-3.5584 3.8139-5.852 4.7203-3.49 0.31272 0.81493 0.29387 2.1976-0.04188 3.0725-0.37784 0.98464 0.36244 2.4929 1.9428 3.9583 1.4043 1.3021 2.8527 3.7311 3.2188 5.3977 0.94562 4.3054 2.3936 4.734 4.9905 1.4772 2.0988-2.6321 2.301-2.6931 2.8801-0.86854 1.3847 4.3627 7.8773 5.5397 10.285 1.8646zm-70.913-52.17c1.0268-1.5125 2.417-3.875 3.0895-5.25 0.67246-1.375 2.3302-4.075 3.6839-6 3.3983-4.8325 3.7433-5.2885 5.8648-7.7509 1.8442-2.1406 1.8281-2.2128-1.2192-5.4592-1.6984-1.8094-3.7466-4.1899-4.5516-5.2899-2.0804-2.8431-3.1209-1.2025-4.4394 7-0.96501 6.0032-0.90783 7.1626 0.40154 8.1421 1.4976 1.1203-0.18854 5.6717-3.7089 10.011-1.423 1.76-2.831 7.35-1.85 7.35 0.47416 0 1.7022-1.2375 2.729-2.75zm187.26-14.25c2.0782-13.824 3.9237-30.452 3.9678-35.75 0.0275-3.3084 0.47511-5.25 1.2103-5.25 0.64166 0 0.90571-0.26096 0.58676-0.5799-2.8398-2.8398-6.7932 4.1621-7.3853 13.08-0.56475 8.5063-2.0033 19.59-3.2448 25-0.50485 2.2-1.2306 5.3888-1.6129 7.0863-0.51273 2.2769-0.23995 3.5414 1.0401 4.8214 2.6394 2.6394 4.1218 0.34752 5.438-8.4077zm12.758 6.9914c0.13562-1.3703-0.61546-4.2914-1.669-6.4914l-1.9156-4-0.081 6.8233c-0.0831 7.0087 3.027 10.121 3.6656 3.6681zm-6.67-0.24c0.0433-0.6875 0.0123-4.0625-0.0689-7.5s0.26603-6.25 0.77169-6.25 1.3242-7.426 1.8189-16.502c0.5972-10.956 0.56344-16.39-0.10047-16.169-0.55 0.18301-1.3276 6.1465-1.7279 13.252-0.70545 12.521-1.7795 19.964-3.9822 27.595-0.58351 2.0216-0.78907 4.3841-0.4568 5.25 0.71671 1.8677 3.6325 2.1202 3.7457 0.32435zm-42.08-4.37c1.375-0.29014 3.425-0.97282 4.5554-1.5171 1.1305-0.54424 2.4805-0.87119 3-0.72655 3.823 1.0644 5.3146-1.2191 6.011-9.2021 0.38262-4.3863 1.0867-8.2168 1.5646-8.5122 1.2218-0.75513 1.0856-6.1671-0.17484-6.9461-1.5828-0.97825-3.9562 1.4757-3.9562 4.0905 0 1.2752-0.45 2.5966-1 2.9366-0.55 0.33992-1 2.5797-1 4.9772 0 5.2435-0.76463 7.5228-2.5237 7.5228-1.9735 0-2.2104-1.8426-0.8888-6.9125 0.76044-2.9172 0.8485-4.9516 0.24188-5.5875-1.7686-1.854-5.6327 6.7583-5.7533 12.823-0.0835 4.1954-3.1886 5.1178-3.9222 1.1652-1.3118-7.0674-14.517-9.4359-21.235-3.8086-0.86963 0.72847-1.9189 0.98672-2.3318 0.57388-0.82611-0.82611-3.5871 2.456-3.5871 4.2642 0 0.6997 1.1829 0.96206 3.0814 0.68343 1.6947-0.24874 4.0572 0.009 5.25 0.5721 5.0808 2.3999 15.36 5.0947 17.669 4.632 1.375-0.27558 3.625-0.73844 5-1.0286zm20.67-12.88c1.3178-11.359 1.4309-15.5 0.42334-15.5-0.59885 0-1.0888 1.3125-1.0888 2.9167s-0.54944 3.0998-1.221 3.3237c-0.67154 0.22385-1.2617 2.1738-1.3114 4.3333s-0.44228 4.9756-0.87236 6.2581c-0.68023 2.0284-0.48897 2.2886 1.4701 2 1.6616-0.2448 2.3433-1.1183 2.6001-3.3318zm-17.396-10c1.7043-1.925 3.4847-3.5 3.9565-3.5s1.8426-0.91741 3.0461-2.0387c1.2036-1.1213 3.2363-2.3017 4.5171-2.6232 1.2808-0.32148 7.8787-4.7583 14.662-9.8597 14.215-10.69 16.093-11.575 18.195-8.574 1.8363 2.6217 3.3544 2.6958 3.3544 0.16369 0-2.1995-2.8986-4.3968-11.5-8.7172-3.3-1.6576-7.0155-3.6498-8.2567-4.427-5.6049-3.5101-13.292 4.2026-9.276 9.3074 1.082 1.3755 1.682 2.7862 1.3333 3.1349-1.4352 1.4352-4.2816 0.46469-6.2062-2.1161-5.1028-6.8427-4.8692-6.8267-10.898-0.74924-3.0006 3.0246-5.9839 5.4992-6.6297 5.4992-0.64576 0-2.7007 1.575-4.5664 3.5-1.8658 1.925-3.9184 3.5-4.5613 3.5-1.8826 0-6.1475 3.7785-6.7152 5.9495-1.6245 6.2122 15.377 16.259 19.546 11.551zm-95.895-22.3c0.79657-1.2889-0.50355-2.5455-7.239-6.9966-7.5948-5.0191-8.4647-5.1718-6.4496-1.1324 2.6466 5.3052 12.001 10.86 13.689 8.129zm5.9308-11.543c3.2348-7.0604 1.0352-28.824-3.9408-38.991-1.3008-2.6577-2.3792-5.8077-2.3966-7-0.05471-3.7529-4.614-7.9887-7.893-7.3329-2.029 0.4058-3.7269-0.10225-6.0367-1.8064-4.3242-3.1903-12.549-5.1801-14.549-3.52-1.799 1.49-1.034 2.99 1.527 2.99 1.0444 0 3.7911 1.8 6.1038 4s4.9727 4 5.9113 4c1.1881 0 1.886 1.1066 2.2976 3.6434 0.32518 2.0039 1.4652 4.5914 2.5333 5.75 5.0539 5.482 5.7572 8.3301 5.5716 22.563-0.11697 8.9681-0.55227 13.582-1.305 13.833-2.309 0.76967-1.0034 3.0815 3.1205 5.5253 4.8433 2.8702 6.343 2.2647 9.0558-3.6564zm-6.556-8.05c-2.2737-1.726-2.2199-3.8727 0.15072-6.0181 2.2211-2.0101 2.6914-1.4291 2.9623 3.6602 0.21389 4.0179-0.35683 4.4502-3.113 2.358zm-22.099 1.1563c-1.458-1.07-2.651-2.52-2.651-3.23 0-0.71037-1.2375-1.5418-2.75-1.8476-2.03-0.41044-3.2074-1.6213-4.497-4.625-0.961-2.24-2.198-4.07-2.75-4.07s-1.003-0.75-1.003-1.67c0-0.91666-0.29354-1.3731-0.65231-1.0144-1.6474 1.6474 2.8986 13.838 5.5356 14.844 1.4392 0.5493 4.1917 1.8175 6.1167 2.8183 4.3509 2.262 6.2377 1.3957 2.651-1.2171zm126.4-1.7323c-1.6748-1.0351-6.2083-0.002-5.7694 1.315 0.61183 1.8355 5.1143 2.4689 6.084 0.85594 0.5401-0.89842 0.42161-1.716-0.31464-2.171zm-40.66-5.6111 5.6336-2.5792 9.7372 2.239c10.525 2.4201 15.376 2.6974 27.737 1.5854 14.309-1.2871 18.42-4.5406 5.75-4.5495-13.624-0.01-16.685-0.4343-17.058-2.3666-0.24985-1.2924 0.31919-1.75 2.176-1.75 3.3994 0 4.2966-1.7958 1.4425-2.8871-2.603-0.99533-5.1809-3.7-6.1687-6.4722-0.55287-1.5515-1.2817-1.7422-4.402-1.1518-3.049 0.57687-11.772 0.71764-16.784 0.27087-0.57426-0.0512-4.9002 1.7819-9.6131 4.0736-4.713 2.2917-9.0255 4.1667-9.5834 4.1667-2.6922 0-3.5729 3.0367-1.5311 5.2793 1.112 1.2214 2.5439 3.2332 3.182 4.4707 1.4768 2.864 2.5914 2.8253 9.4818-0.32917zm-105.39-16.43c0-1.1507-3.6303-4.989-4.75-5.0222-0.412-0.01-1.875-0.9-3.25-1.98-4.092-3.2-5.603-2.09-2.25 1.65 3.293 3.67 10.25 7.3 10.25 5.35zm68.112-13.288c-0.61-0.61-1.11-2.11-1.11-3.33 0-5.34-3.941-8.38-10.869-8.38-4.734 0-7.14-0.8-7.105-2.36 0.028-1.23 8.949-7.64 10.638-7.64 3.979 0 10.816-10.64 7.186-11.18-3.42-0.51-4.786-3.625-2.35-5.367 7.51-5.368 9.87-12.619 5.94-18.23-1.91-2.733-2.96-2.762-7.94-0.223-5.1083 2.6043-6.6604 2.5226-9.5-0.5-3.8703-4.1198-7.5207-1.7924-6.4169 4.0912 0.83096 4.4294-1.984 19.447-6.7788 36.165-1.0507 3.6632-0.99611 4.4806 0.39156 5.8683 2.5084 2.5084 3.6383 0.9369 2.764-3.8442-0.42874-2.3446-0.56399-4.6116-0.30056-5.0378 0.768-1.24 2.341 0.21 2.341 2.17 0 4.3 3.021 8.09 6.451 8.09 5.0184 0 10.388 2.6841 12.556 6.2762 3.3428 5.5393 4.4549 6.8389 4.8465 5.664 0.20446-0.61338-0.12888-1.6159-0.74075-2.2277zm-67.395-12.68c1.867-1.1384 4.3131-4.1274 5.8343-7.1293l2.6194-5.1691-5.67-5.6169c-3.118-3.086-6.403-6.852-7.299-8.364-3.1573-5.327-11.27 2.1331-9.5917 8.8202 0.42543 1.6951 0.12438 2.5957-1.0136 3.0324-2.161 0.83-4.594-1.315-4.594-4.049 0-3.399-5.611-2.239-7.9758 1.65-5.1715 8.499 7.0148 18.789 16.953 14.309 4.404-1.99 6.023-1.43 6.023 2.05 0 2.9482 0.56311 3.0048 4.7149 0.4733zm35.544-3.28c0.25323-2.3375 1.1515-6.725 1.9962-9.75 4.0053-14.344 3.1253-17.112-3.3091-10.411-1.8954 1.9741-5.5733 4.6764-8.1732 6.0052-2.7302 1.3954-5.3704 3.66-6.25 5.361-0.83763 1.6198-2.3105 3.4092-3.273 3.9765-2.2095 1.3022-0.14551 3.0054 3.75 3.0946 1.375 0.0315 4.75 1.3695 7.5 2.9734 6.6009 3.8498 7.2173 3.7505 7.759-1.25zm-15.774-17.891c3.897-1.224 8.364-3.489 10.419-5.284 1.978-1.728 5.284-4.388 7.346-5.91s3.75-3.271 3.75-3.887 0.712-1.907 1.581-2.868c1.45-1.602 1.407-1.922-0.523-3.852-2.44-2.44-1.341-6.058 1.841-6.058 1.416 0 1.972-1.04 2.46-4.603 0.743-5.417 0.228-6.598-2.698-6.195-1.793 0.247-2.161-0.203-2.161-2.651 0-2.6931 0.30314-2.953 3.4984-3 5.19-0.076 10.626-15.583 5.98-17.058-2.955-0.938-7.957-10.224-7.969-14.793-0.027-11.024-10.133-15.481-21.269-9.3803-2.907 1.5924-4.03 1.7903-4.95 0.8701-4.204-4.204-17.79 3.6682-17.79 10.308 0 2.055-1.442 6.122-3.562 10.049-3.729 6.906-3.565 9.453 0.608 9.453 1.968 0 7.954 4.606 7.954 6.12 0 2.0203-3.074 1.9667-5.7007-0.0995l-2.7595-2.1706-1.8314 2.2617c-3.6929 4.5606-0.60766 9.6519 6.1123 10.087 5.7166 0.3698 7.1992 3.199 2.2465 4.2868-1.6743 0.36774-3.3009 1.084-3.6147 1.5917-0.313 0.508-1.631 0.923-2.928 0.923-4.772 0-4.982 10.156-0.368 17.869 9.821 16.417 12.214 17.793 24.329 13.99zm-13.798-9.664c-3.1723-3.3111-3.3054-4.3257-0.85835-6.5403 4.9208-4.4533 12.483-0.23431 10.225 5.7047-1.6757 4.4075-5.6081 4.7583-9.3663 0.83563zm-1.437-12.856c-2.6006-1.8297-2.8628-3.5856-0.79207-5.3042 1.1807-0.97993 1.9553-0.71263 4.0739 1.406 4.1353 4.1353 1.5016 7.2637-3.2818 3.8982zm12.25-12.702c-1.866-1.413-1.888-1.628-0.338-3.203 1.679-1.704 10.131-1.387 11.249 0.422 1.87 3.026-7.451 5.402-10.911 2.781zm9.313-14.137c-2.628-3.023-3.776-3.104-7.086-0.5-5.249 4.129-7.735 1.867-2.65-2.411 5.185-4.364 13.923-2.279 13.923 3.321 0 2.789-1.537 2.638-4.187-0.41zm12.937-0.397c-0.962-0.974-1.75-2.307-1.75-2.962s-1.125-1.618-2.5-2.141-2.5-1.637-2.5-2.475c0-1.7417 3.5378-2.0817 4.5538-0.43763 0.36953 0.59792 1.527 0.8635 2.5721 0.5902 2.3306-0.60946 4.1263 2.3358 3.6857 6.045-0.38426 3.2346-1.7647 3.7037-4.0616 1.3802zm-14.75-14.942c0-1.109 4.576-3.161 7.047-3.161 2.419 0 2.487 0.874 0.203 2.608-1.937 1.47-7.25 1.875-7.25 0.553zm-10.25-3.85c-0.962-0.252-1.75-1.1-1.75-1.884 0-0.78467 0.7875-1.4952 1.75-1.579 0.9625-0.08377 2.2807-0.20201 2.9294-0.26275 2.4425-0.22872 2.4077-1.4817-0.08656-3.116-2.3918-1.5671-2.8754-1.573-6.607-0.0799-4.929 1.972-5.986 2.011-5.986 0.22 0-3.108 11.886-5.811 15.961-3.63 7.586 4.06 2.455 12.596-6.211 10.332z"/>
</svg>
